<svg xmlns="http://www.w3.org/2000/svg" width="31.488" height="31.491" viewBox="0 0 31.488 31.491">
  <g id="그룹_6" data-name="그룹 6" transform="translate(-329.627 -50.238)">
    <path id="빼기_2" data-name="빼기 2" d="M-1018.223-6967.709h-13.81a2.843,2.843,0,0,1-2.84-2.84v-24.808a2.844,2.844,0,0,1,2.84-2.842h24.808a2.844,2.844,0,0,1,2.84,2.842v24.808a2.843,2.843,0,0,1-2.84,2.84h-6.347v-11.551h3.88l.58-4.5h-4.459v-2.875c0-1.315.38-2.192,2.232-2.192l2.385,0v-4.029a32.318,32.318,0,0,0-3.476-.176,5.8,5.8,0,0,0-4.185,1.53,6.041,6.041,0,0,0-1.607,4.422v3.321h-3.888v4.5h3.888v11.551Z" transform="translate(1365 7048.938)" fill="#333" stroke="rgba(0,0,0,0)" stroke-miterlimit="10" stroke-width="1"/>
  </g>
</svg>
