<svg xmlns="http://www.w3.org/2000/svg" width="31.021" height="31.017" viewBox="0 0 31.021 31.017">
  <g id="그룹_51" data-name="그룹 51" transform="translate(-44.951 -120.696)">
    <path id="패스_43" data-name="패스 43" d="M67.019,120.7H53.9a8.952,8.952,0,0,0-8.953,8.952v13.114a8.95,8.95,0,0,0,8.953,8.951H67.019a8.95,8.95,0,0,0,8.953-8.951V129.648a8.952,8.952,0,0,0-8.953-8.952m6.1,22.3a5.946,5.946,0,0,1-5.944,5.945H53.749a5.948,5.948,0,0,1-5.944-5.945v-13.42a5.946,5.946,0,0,1,5.944-5.944H67.17a5.944,5.944,0,0,1,5.944,5.944Z" fill="#333"/>
    <path id="패스_44" data-name="패스 44" d="M60.46,128.234a8.048,8.048,0,1,0,8.051,8.049,8.046,8.046,0,0,0-8.051-8.049m0,13.266a5.218,5.218,0,1,1,5.218-5.217A5.217,5.217,0,0,1,60.46,141.5" fill="#333"/>
    <path id="패스_45" data-name="패스 45" d="M68.779,126.052a1.875,1.875,0,1,0,1.875,1.875,1.876,1.876,0,0,0-1.875-1.875" fill="#333"/>
  </g>
</svg>
