<svg xmlns="http://www.w3.org/2000/svg" width="35.5" height="34.212" viewBox="0 0 35.5 34.212">
  <path id="Icon_ionic-ios-heart-empty" data-name="Icon ionic-ios-heart-empty" d="M28.952,3.938h-.084a9.573,9.573,0,0,0-7.993,4.375,9.573,9.573,0,0,0-7.993-4.375H12.8a9.512,9.512,0,0,0-9.423,9.507A20.48,20.48,0,0,0,7.4,24.609c5.065,6.924,13.478,12.982,13.478,12.982s8.413-6.058,13.478-12.982a20.48,20.48,0,0,0,4.022-11.165A9.512,9.512,0,0,0,28.952,3.938Zm3.5,19.284c-3.584,4.905-9.044,9.431-11.577,11.409A64.627,64.627,0,0,1,9.3,23.213a18.151,18.151,0,0,1-3.567-9.768A7.138,7.138,0,0,1,12.815,6.3h.076a7.054,7.054,0,0,1,3.458.909,7.352,7.352,0,0,1,2.558,2.4,2.364,2.364,0,0,0,3.954,0,7.425,7.425,0,0,1,2.558-2.4A7.054,7.054,0,0,1,28.876,6.3h.076a7.138,7.138,0,0,1,7.084,7.143A18.38,18.38,0,0,1,32.452,23.221Z" transform="translate(-3.125 -3.688)" fill="#333" stroke="#333" stroke-width="0.5"/>
</svg>
