<svg xmlns="http://www.w3.org/2000/svg" width="21.539" height="20" viewBox="0 0 21.539 20">
  <path id="Icon_ionic-ios-star-outline" data-name="Icon ionic-ios-star-outline" d="M22.971,10.3H15.9L13.75,3.885a.779.779,0,0,0-1.462,0L10.139,10.3H3.019a.771.771,0,0,0-.769.769.565.565,0,0,0,.014.13.739.739,0,0,0,.322.543l5.813,4.1L6.168,22.322a.771.771,0,0,0,.264.865.744.744,0,0,0,.433.188.942.942,0,0,0,.481-.173l5.673-4.043L18.692,23.2a.9.9,0,0,0,.481.173.691.691,0,0,0,.428-.188.762.762,0,0,0,.264-.865l-2.231-6.486L23.4,11.7l.139-.12a.807.807,0,0,0,.25-.514A.814.814,0,0,0,22.971,10.3Zm-6.115,4.447a1.35,1.35,0,0,0-.49,1.529l1.447,4.216a.193.193,0,0,1-.293.221L13.8,18.058a1.343,1.343,0,0,0-.784-.25,1.318,1.318,0,0,0-.779.25L8.514,20.707a.192.192,0,0,1-.293-.221l1.447-4.216a1.355,1.355,0,0,0-.5-1.538L5.279,11.986a.193.193,0,0,1,.111-.351h4.745a1.344,1.344,0,0,0,1.274-.918l1.423-4.24a.193.193,0,0,1,.365,0l1.423,4.24a1.344,1.344,0,0,0,1.274.918h4.678a.19.19,0,0,1,.111.346Z" transform="translate(-2.25 -3.375)"/>
</svg>
