<svg xmlns="http://www.w3.org/2000/svg" width="27.943" height="22.709" viewBox="0 0 27.943 22.709">
  <path id="패스_130" data-name="패스 130" d="M132.265,128.376a11.548,11.548,0,0,1-3.295.9,5.763,5.763,0,0,0,2.521-3.172,11.585,11.585,0,0,1-3.64,1.391,5.738,5.738,0,0,0-9.768,5.229,16.3,16.3,0,0,1-11.817-5.989,5.74,5.74,0,0,0,1.775,7.652,5.723,5.723,0,0,1-2.6-.719v.074a5.742,5.742,0,0,0,4.6,5.622,5.859,5.859,0,0,1-1.507.2,5.766,5.766,0,0,1-1.084-.1,5.746,5.746,0,0,0,5.359,3.981,11.507,11.507,0,0,1-7.122,2.453,12.121,12.121,0,0,1-1.367-.078,16.221,16.221,0,0,0,8.788,2.575c10.544,0,16.307-8.736,16.307-16.31,0-.248,0-.5-.016-.742a11.75,11.75,0,0,0,2.864-2.969" transform="translate(-104.322 -125.688)" fill="#333"/>
</svg>
