<svg xmlns="http://www.w3.org/2000/svg" width="24" height="23.077" viewBox="0 0 24 23.077">
  <path id="Icon_ionic-ios-heart-empty" data-name="Icon ionic-ios-heart-empty" d="M20.913,3.938h-.058a6.564,6.564,0,0,0-5.481,3,6.564,6.564,0,0,0-5.481-3H9.837a6.523,6.523,0,0,0-6.462,6.519,14.043,14.043,0,0,0,2.758,7.656,48.327,48.327,0,0,0,9.242,8.9,48.327,48.327,0,0,0,9.242-8.9,14.043,14.043,0,0,0,2.758-7.656A6.523,6.523,0,0,0,20.913,3.938Zm2.4,13.223a44.249,44.249,0,0,1-7.938,7.823,44.316,44.316,0,0,1-7.938-7.829,12.446,12.446,0,0,1-2.446-6.7,4.895,4.895,0,0,1,4.858-4.9H9.9a4.837,4.837,0,0,1,2.371.623,5.041,5.041,0,0,1,1.754,1.644,1.621,1.621,0,0,0,2.712,0A5.092,5.092,0,0,1,18.49,6.182a4.837,4.837,0,0,1,2.371-.623h.052a4.895,4.895,0,0,1,4.858,4.9A12.6,12.6,0,0,1,23.313,17.161Z" transform="translate(-3.375 -3.938)" fill="#333"/>
</svg>
